<?xml version="1.0" encoding="utf-8"?>
<!-- Generator: Adobe Illustrator 27.0.0, SVG Export Plug-In . SVG Version: 6.00 Build 0)  -->
<svg version="1.1" id="_account_black" xmlns="http://www.w3.org/2000/svg" xmlns:xlink="http://www.w3.org/1999/xlink" x="0px" y="0px"
	 viewBox="0 0 16 16" style="enable-background:new 0 0 16 16;" xml:space="preserve">
<path fill="#fff" d="M10.22,9c-0.01,1.01-0.82,2-2,1.99c-1.18,0-2.01-1.01-1.99-2.04c0.02-0.97,0.81-1.95,1.99-1.95C9.41,7,10.22,8,10.22,9z
	 M9.23,9c0-0.58-0.42-1-1-1c-0.58,0-1,0.42-1,1c0,0.58,0.42,1,1,1C8.82,10,9.23,9.59,9.23,9z"/>
<path fill="#fff" d="M2.24,8c0-1.98,0-3.96,0-5.93c0-0.44,0.11-0.84,0.37-1.2c0.33-0.46,0.77-0.75,1.34-0.83C4.07,0.02,4.21,0,4.34,0
	C5.9,0,7.47,0,9.03,0c0.47,0,0.86,0.16,1.19,0.49c1.17,1.18,2.35,2.35,3.52,3.52c0.19,0.19,0.35,0.4,0.41,0.66
	C14.2,4.83,14.22,5,14.23,5.15c0,2.94,0,5.87,0,8.81c0,0.55-0.18,1.02-0.57,1.42c-0.35,0.36-0.78,0.57-1.28,0.6
	C12.21,16,12.03,16,11.86,16c-2.51,0-5.03,0-7.54,0c-0.74,0-1.33-0.3-1.75-0.91c-0.23-0.34-0.33-0.74-0.33-1.15
	C2.24,11.96,2.24,9.98,2.24,8z M13.24,6c-0.05,0-0.08,0-0.11,0c-1.1,0-2.2,0-3.3,0C9.71,6,9.59,5.98,9.48,5.96
	C9.14,5.9,8.84,5.75,8.62,5.49c-0.26-0.3-0.38-0.66-0.38-1.06c0-1.11,0-2.22,0-3.33c0-0.03,0-0.07,0-0.11C8.2,1,8.17,1,8.14,1
	C6.85,1,5.56,1,4.27,1C4.23,1,4.19,1,4.15,1c-0.34,0.02-0.6,0.17-0.78,0.46c-0.12,0.19-0.15,0.4-0.15,0.62c0,3.86,0,7.73,0,11.59
	c0,0.15,0,0.3,0.01,0.45c0.04,0.37,0.23,0.64,0.57,0.79c0.29,0.13,0.61,0.07,0.92,0.08c0-0.15,0-0.28,0-0.42
	c0.01-0.49,0.11-0.95,0.35-1.37c0.26-0.45,0.62-0.77,1.09-0.98C6.55,12.07,6.94,12,7.34,12c0.6,0,1.19,0,1.79,0
	c0.4,0,0.78,0.07,1.14,0.23c0.66,0.29,1.09,0.79,1.32,1.47c0.11,0.33,0.14,0.66,0.13,1c0,0.1,0,0.19,0,0.3
	c0.28-0.01,0.56,0.03,0.83-0.05c0.17-0.05,0.31-0.14,0.43-0.27c0.19-0.21,0.25-0.46,0.25-0.74c0-2.62,0-5.23,0-7.85
	C13.24,6.07,13.24,6.04,13.24,6z M10.74,15c0-0.31,0.02-0.61-0.07-0.9c-0.08-0.27-0.21-0.51-0.42-0.7C9.93,13.12,9.56,13,9.13,13
	c-0.61,0-1.21,0-1.82,0c-0.12,0-0.24,0.01-0.36,0.04c-0.49,0.1-0.86,0.36-1.07,0.82c-0.17,0.36-0.16,0.74-0.15,1.13
	c0,0,0.01,0.01,0.01,0.01C7.4,15,9.06,15,10.74,15z M9.23,1.04c0,0.02,0,0.04,0,0.06c0,1.12,0,2.24,0,3.37c0,0.1,0.03,0.21,0.07,0.3
	C9.39,4.94,9.57,5,9.77,5c1.13,0,2.26,0,3.39,0C13.18,5,13.2,5,13.25,5c-0.08-0.1-0.14-0.18-0.21-0.25
	c-0.77-0.77-1.54-1.54-2.31-2.31C10.32,2.02,9.9,1.6,9.48,1.19C9.42,1.12,9.35,1.05,9.23,1.04z"/>
</svg>
