<?xml version="1.0" encoding="utf-8"?>
<!-- Generator: Adobe Illustrator 27.0.0, SVG Export Plug-In . SVG Version: 6.00 Build 0)  -->
<svg version="1.1" id="_file_import_white" xmlns="http://www.w3.org/2000/svg" xmlns:xlink="http://www.w3.org/1999/xlink" x="0px" y="0px"
	 viewBox="0 0 16 16" style="enable-background:new 0 0 16 16;" xml:space="preserve">
<g>
	<path fill="#fff" d="M4.01,11.51c0.33,0,0.65,0,0.99,0c0,0.04,0,0.07,0,0.11c0,0.77,0,1.55,0,2.32c0,0.14,0.02,0.29,0.06,0.43
		C5.2,14.76,5.5,14.97,5.91,15c0.04,0,0.09,0,0.13,0c2.64,0,5.27,0,7.91,0c0.27,0,0.52-0.06,0.73-0.25
		c0.17-0.16,0.28-0.36,0.31-0.59c0.01-0.09,0.01-0.18,0.01-0.27c0-2.59,0-5.18,0-7.77c0-0.04,0-0.08,0-0.13c-0.04,0-0.07,0-0.1,0
		c-1.11,0-2.22,0-3.33,0c-0.42,0-0.8-0.13-1.12-0.42c-0.21-0.19-0.34-0.44-0.4-0.71c-0.04-0.16-0.05-0.33-0.06-0.5
		c0-1.08,0-2.17,0-3.25c0-0.04,0-0.07,0-0.11c-0.04,0-0.07,0-0.1,0c-1.29,0-2.57,0-3.86,0c-0.22,0-0.43,0.03-0.61,0.16
		c-0.25,0.17-0.4,0.41-0.43,0.71C4.99,2,4.99,2.13,4.99,2.26c0,1.87,0,3.74,0,5.61c0,0.04,0,0.08,0,0.12c-0.33,0-0.66,0-0.99,0
		c0-0.04,0-0.07,0-0.1c0-1.94,0-3.89,0-5.83c0-0.83,0.38-1.45,1.11-1.85C5.4,0.06,5.72,0,6.04,0c1.6,0,3.2,0,4.8,0
		c0.44,0,0.82,0.15,1.13,0.47c1.19,1.19,2.37,2.38,3.56,3.56c0.24,0.24,0.41,0.53,0.46,0.87C16,4.98,16,5.08,16,5.17
		c0,2.93,0,5.85,0,8.78c0,0.55-0.18,1.04-0.57,1.43c-0.35,0.36-0.78,0.57-1.28,0.6C13.98,16,13.8,16,13.62,16c-2.51,0-5.03,0-7.54,0
		c-0.74,0-1.33-0.3-1.75-0.91C4.11,14.76,4,14.38,4,13.98c0-0.8,0-1.6,0-2.4C4,11.56,4,11.53,4.01,11.51z M15.02,4.99
		c-0.08-0.1-0.14-0.18-0.21-0.25c-1.18-1.18-2.37-2.37-3.55-3.55c-0.03-0.03-0.06-0.07-0.1-0.09c-0.05-0.03-0.1-0.06-0.17-0.09
		C11,1.06,11,1.08,11,1.09c0,1.12,0,2.24,0,3.36c0,0.1,0.03,0.21,0.07,0.3C11.17,4.94,11.35,5,11.54,5c1.12,0,2.25,0,3.37,0
		C14.94,5,14.96,5,15.02,4.99z"/>
	<path fill="#fff" d="M10.29,10.5c-0.06,0-0.1,0-0.13,0c-3.2,0-6.39,0-9.59,0c-0.17,0-0.32-0.03-0.44-0.16c-0.14-0.16-0.16-0.35-0.09-0.54
		c0.06-0.17,0.2-0.26,0.37-0.28C0.47,9.51,0.54,9.5,0.6,9.5c3.19,0,6.37,0,9.56,0c0.04,0,0.07,0,0.13,0
		c-0.03-0.04-0.05-0.06-0.07-0.08C9.54,8.74,8.87,8.06,8.2,7.38C8.09,7.27,8,7.15,8.01,6.98c0.02-0.21,0.13-0.35,0.31-0.44
		C8.49,6.47,8.64,6.5,8.78,6.61C8.81,6.63,8.85,6.67,8.88,6.7c0.98,0.97,1.95,1.95,2.93,2.92C11.91,9.73,12,9.84,12,10
		c0,0.16-0.09,0.28-0.19,0.38c-0.77,0.78-1.55,1.55-2.32,2.32c-0.2,0.2-0.41,0.41-0.61,0.61c-0.13,0.13-0.28,0.21-0.47,0.16
		c-0.26-0.07-0.46-0.36-0.37-0.6c0.04-0.1,0.1-0.19,0.18-0.27c0.66-0.68,1.33-1.35,1.99-2.03C10.22,10.57,10.25,10.54,10.29,10.5z"
		/>
</g>
</svg>
