<?xml version="1.0" encoding="utf-8"?>
<!-- Generator: Adobe Illustrator 27.0.0, SVG Export Plug-In . SVG Version: 6.00 Build 0)  -->
<svg version="1.1" id="_megaphone_white" xmlns="http://www.w3.org/2000/svg" xmlns:xlink="http://www.w3.org/1999/xlink" x="0px" y="0px"
	 viewBox="0 0 16 16" style="enable-background:new 0 0 16 16;" xml:space="preserve">
<path fill="#fff" d="M15.12,13.46c-1.81-0.45-3.6-0.91-5.4-1.36c-0.18,0.72-0.56,1.3-1.19,1.69c-0.62,0.39-1.3,0.51-2.02,0.34
	c-0.74-0.17-1.31-0.59-1.69-1.25c-0.38-0.65-0.45-1.35-0.25-2.09c-1.23-0.3-2.45-0.59-3.69-0.89c0,0.13,0.01,0.24,0,0.36
	c-0.02,0.21-0.15,0.35-0.36,0.38c-0.25,0.04-0.48-0.1-0.51-0.39c0-0.02,0-0.05,0-0.07c0-1.45,0-2.91,0-4.36
	c0-0.13,0.02-0.25,0.12-0.35c0.14-0.13,0.3-0.16,0.48-0.1c0.17,0.06,0.26,0.19,0.27,0.36c0.01,0.12,0,0.25,0,0.38
	c4.75-1.19,9.5-2.37,14.25-3.55c0-0.11,0-0.21,0-0.31c0.01-0.23,0.1-0.38,0.3-0.44c0.23-0.07,0.55,0.04,0.57,0.37
	c0,0.04,0,0.08,0,0.12c0,3.8,0,7.59,0,11.39c0,0.03,0,0.05,0,0.08c-0.01,0.3-0.2,0.43-0.44,0.43c-0.23,0-0.41-0.12-0.44-0.42
	C15.12,13.68,15.12,13.58,15.12,13.46z M15.12,3.48C10.37,4.66,5.63,5.84,0.88,7.03c0,0.66,0,1.32,0,1.97
	c4.74,1.18,9.49,2.37,14.23,3.55C15.12,9.52,15.12,6.51,15.12,3.48z M5.43,11.02c-0.19,0.48-0.08,1.18,0.31,1.64
	c0.48,0.56,1.1,0.79,1.82,0.61c0.71-0.18,1.13-0.68,1.31-1.39C7.72,11.6,6.57,11.31,5.43,11.02z"/>
</svg>
