<?xml version="1.0" encoding="utf-8"?>
<!-- Generator: Adobe Illustrator 27.0.0, SVG Export Plug-In . SVG Version: 6.00 Build 0)  -->
<svg version="1.1" id="_unlock_black" xmlns="http://www.w3.org/2000/svg" xmlns:xlink="http://www.w3.org/1999/xlink" x="0px" y="0px"
	 viewBox="0 0 16 16" style="enable-background:new 0 0 16 16;" xml:space="preserve">
<path fill="#fff" d="M4,6c0-0.04,0-0.08,0-0.12C4,5.22,3.99,4.56,4.01,3.9c0.02-0.92,0.31-1.75,0.9-2.46c0.47-0.57,1.06-0.97,1.76-1.21
	C7.1,0.08,7.53,0,7.98,0C8.44,0,8.9,0.08,9.33,0.23c0.74,0.26,1.35,0.71,1.84,1.33c0.3,0.39,0.52,0.83,0.67,1.3
	c0.09,0.27-0.06,0.52-0.33,0.6c-0.28,0.08-0.53-0.05-0.63-0.33c-0.09-0.23-0.17-0.46-0.29-0.67c-0.26-0.47-0.63-0.82-1.1-1.08
	C9.04,1.14,8.57,1.01,8.07,1C7.53,0.98,7.01,1.1,6.54,1.37C6.05,1.64,5.66,2.02,5.39,2.51c-0.22,0.4-0.36,0.82-0.37,1.27
	C4.99,4.51,5,5.23,4.99,5.95C4.99,5.96,5,5.97,5,6c0.04,0,0.07,0,0.1,0c2.44,0,4.88,0,7.31,0c0.5,0,0.98,0.11,1.41,0.37
	c0.43,0.26,0.74,0.62,0.94,1.07C14.93,7.81,15,8.2,15,8.6c0,1.6,0,3.2,0,4.8c0,0.49-0.11,0.95-0.35,1.38
	c-0.25,0.45-0.62,0.76-1.08,0.98C13.2,15.94,12.8,16,12.39,16c-2.94,0-5.88,0-8.81,0c-0.5,0-0.96-0.11-1.39-0.37
	c-0.52-0.31-0.86-0.76-1.05-1.33C1.03,13.98,1,13.65,1,13.32c0-1.57,0-3.15,0-4.72C1,8,1.15,7.44,1.52,6.96
	C1.76,6.63,2.07,6.4,2.44,6.23C2.81,6.07,3.2,6,3.6,6C3.73,6,3.86,6,4,6z M8,7c-1.47,0-2.95,0-4.42,0C3.46,7,3.34,7.01,3.22,7.03
	c-0.43,0.09-0.77,0.3-1,0.68C2.06,7.98,1.99,8.27,1.99,8.58c0,1.55,0,3.11,0,4.66c0,0.13,0,0.26,0.01,0.38
	c0.04,0.37,0.17,0.7,0.44,0.96C2.75,14.87,3.13,15,3.55,15c2.96,0,5.93,0,8.89,0c0.12,0,0.23-0.01,0.35-0.04
	c0.42-0.09,0.77-0.3,0.99-0.68c0.16-0.27,0.23-0.55,0.23-0.86c0-1.6,0-3.2,0-4.79c0-0.17-0.02-0.34-0.06-0.51
	c-0.06-0.27-0.19-0.51-0.39-0.69C13.24,7.13,12.86,7,12.43,7C10.95,7,9.48,7,8,7z"/>
</svg>
